<?xml version="1.0" standalone="no"?>
<!DOCTYPE svg PUBLIC "-//W3C//DTD SVG 20010904//EN"
 "http://www.w3.org/TR/2001/REC-SVG-20010904/DTD/svg10.dtd">
<svg version="1.0" xmlns="http://www.w3.org/2000/svg"
 width="512.000000pt" height="512.000000pt" viewBox="0 0 512.000000 512.000000"
 preserveAspectRatio="xMidYMid meet">

<g transform="translate(0.000000,512.000000) scale(0.100000,-0.100000)"
fill="#000000" stroke="none">
<path d="M2232 5107 c-156 -57 -197 -283 -70 -391 l39 -34 -12 -46 c-14 -58
-5 -120 25 -171 l24 -39 -26 -46 c-38 -63 -38 -155 -1 -220 l25 -45 -25 -48
c-52 -102 -21 -227 72 -297 l47 -35 0 -120 c0 -111 -2 -124 -29 -181 -15 -33
-53 -86 -83 -119 l-54 -58 -309 -2 c-339 -2 -396 -8 -572 -66 -184 -60 -335
-153 -484 -296 -184 -177 -302 -392 -365 -663 -15 -66 -18 -151 -21 -716 l-4
-642 23 -26 c30 -35 80 -38 111 -7 l22 22 6 657 c4 465 9 670 18 702 28 105
56 181 102 270 134 261 366 461 641 553 138 46 222 57 451 57 l212 0 -127
-127 c-75 -76 -134 -143 -143 -165 -19 -48 -19 -138 0 -186 16 -36 15 -41 -36
-207 -29 -93 -55 -173 -58 -177 -4 -4 -94 8 -201 27 -107 19 -211 35 -232 35
l-37 0 -85 144 c-64 108 -92 146 -114 155 -52 22 -102 -14 -102 -73 0 -15 32
-79 70 -143 39 -64 67 -120 63 -123 -5 -4 -52 -17 -105 -29 -106 -24 -128 -40
-128 -94 0 -33 40 -77 69 -77 11 0 100 20 198 44 l178 44 130 -24 c72 -13 134
-25 138 -27 10 -3 -272 -203 -306 -217 -12 -5 -94 -25 -182 -46 -110 -25 -167
-43 -182 -57 -47 -43 -15 -127 47 -127 16 0 68 9 116 20 48 11 88 19 90 17 2
-2 -59 -133 -136 -290 -77 -158 -140 -297 -140 -310 0 -57 68 -94 116 -62 16
10 44 54 71 111 24 52 46 94 48 94 2 0 57 -47 122 -105 64 -58 127 -108 139
-111 53 -13 104 43 90 99 -3 12 -66 76 -141 141 -74 66 -135 123 -135 126 0 4
40 90 89 191 l88 184 74 51 c41 28 79 54 85 57 8 5 21 -29 39 -103 l27 -110
-32 -143 c-36 -160 -35 -189 10 -212 38 -20 52 -19 83 5 19 15 29 38 42 97 9
43 21 82 25 87 5 4 38 -19 73 -53 77 -71 107 -82 145 -54 20 15 28 30 30 60 3
40 1 42 -111 147 l-114 106 -32 133 c-17 72 -31 137 -31 142 0 6 39 36 85 68
l85 58 49 157 c27 86 55 175 61 197 l12 40 61 0 c86 1 125 23 240 134 l97 94
0 -239 0 -240 -40 -39 c-45 -44 -126 -157 -157 -220 -76 -151 -103 -286 -113
-565 -9 -252 -18 -300 -79 -425 -49 -99 -116 -176 -215 -244 -211 -145 -514
-224 -919 -239 l-177 -7 0 31 c0 101 -75 150 -137 88 l-25 -25 4 -152 c3 -139
6 -157 30 -209 37 -80 107 -151 187 -191 l65 -32 264 -3 c204 -3 287 0 373 13
123 18 282 66 380 115 341 171 595 493 685 871 16 67 19 160 24 974 l5 900 40
20 c53 26 137 26 190 0 l40 -20 5 -905 c6 -886 6 -907 27 -986 122 -457 451
-804 878 -929 161 -47 263 -57 555 -53 l266 3 65 32 c80 39 150 111 187 191
l27 57 3 652 c3 642 2 653 -17 672 -32 32 -68 37 -99 14 l-27 -20 -3 -557 -2
-557 -133 6 c-456 22 -759 98 -973 246 -99 68 -166 145 -215 244 -61 125 -70
173 -79 425 -8 238 -21 327 -67 454 -49 135 -119 250 -202 331 l-41 39 0 240
0 239 103 -99 c88 -86 110 -102 160 -118 37 -12 72 -16 96 -12 l37 6 18 -58
c10 -31 38 -121 62 -199 l44 -142 85 -58 c46 -32 85 -62 85 -68 0 -5 -14 -69
-31 -142 l-31 -132 -114 -107 c-113 -105 -115 -107 -112 -147 2 -30 10 -45 30
-60 38 -28 68 -17 145 54 35 34 68 57 73 53 4 -5 16 -44 25 -87 13 -59 23 -82
42 -97 31 -24 45 -25 83 -5 45 23 46 52 10 212 l-32 143 27 110 c18 74 31 108
39 103 6 -3 44 -29 85 -57 l74 -51 89 -184 c48 -101 88 -186 88 -190 0 -4 -61
-61 -135 -127 -75 -65 -138 -129 -141 -142 -14 -55 37 -111 90 -98 12 3 75 53
139 111 65 58 120 105 122 105 3 0 25 -42 49 -94 27 -58 54 -101 69 -111 49
-32 117 4 117 62 0 13 -63 152 -140 310 -77 157 -138 288 -136 290 2 2 42 -6
90 -17 48 -11 100 -20 116 -20 63 0 94 84 48 127 -16 15 -70 32 -183 58 -88
20 -170 40 -182 45 -36 15 -316 214 -306 217 5 2 69 14 142 27 l132 24 172
-44 c95 -24 182 -44 195 -44 30 0 72 43 72 74 0 54 -35 75 -183 111 -76 18
-140 34 -142 36 -1 2 26 53 61 114 79 135 81 177 13 204 -52 19 -78 -6 -168
-161 l-85 -144 -170 -30 c-94 -16 -177 -29 -185 -29 -8 0 -32 61 -67 175 l-54
175 17 39 c23 51 22 140 -2 186 -9 19 -72 91 -139 160 l-121 125 35 3 c19 2
127 2 240 -1 180 -3 217 -7 301 -30 341 -91 614 -323 751 -639 63 -145 92
-295 100 -517 3 -56 6 -66 30 -84 31 -23 67 -18 100 15 20 20 21 28 15 162 -8
217 -54 398 -143 566 -186 350 -513 591 -904 667 -65 13 -156 17 -395 19
l-310 2 -53 58 c-28 31 -66 84 -82 117 -28 57 -30 67 -30 181 l0 121 47 35
c93 69 123 197 71 298 l-25 49 26 44 c36 61 36 145 0 215 l-26 51 23 39 c30
50 39 112 25 171 -12 46 -12 46 22 74 96 79 100 252 9 345 -44 44 -99 64 -180
64 -86 0 -106 -8 -121 -51 -8 -24 -7 -37 4 -59 18 -35 32 -40 104 -40 77 0
111 -25 111 -81 0 -26 -7 -46 -20 -59 -19 -19 -33 -20 -299 -20 -266 0 -279 1
-305 21 -20 16 -26 29 -26 59 0 59 33 80 127 80 66 0 77 3 100 26 20 20 24 31
19 57 -10 54 -37 67 -130 66 -44 0 -96 -6 -114 -12z m511 -458 c49 -22 61 -86
22 -124 -24 -25 -26 -25 -205 -25 -179 0 -181 0 -205 25 -37 37 -28 101 19
123 29 15 338 15 369 1z m1 -310 c50 -23 57 -103 13 -134 -17 -12 -59 -15
-200 -15 -176 0 -178 0 -202 25 -37 37 -28 101 19 123 29 15 338 15 370 1z
m-1 -310 c49 -22 61 -86 22 -124 -24 -25 -26 -25 -205 -25 -179 0 -181 0 -205
25 -37 37 -28 101 19 123 29 15 338 15 369 1z m-101 -446 c6 -220 -7 -199 335
-544 257 -260 283 -289 283 -319 0 -46 -33 -80 -78 -80 -32 0 -52 17 -221 183
-198 195 -233 219 -342 240 -41 7 -73 7 -115 -1 -117 -24 -153 -49 -349 -242
-168 -166 -185 -180 -218 -180 -27 0 -41 7 -56 26 -43 55 -41 58 252 353 151
152 283 292 294 311 39 66 53 136 53 272 l0 128 79 0 79 0 4 -147z m-386
-2483 c-72 -461 -418 -821 -886 -925 -53 -12 -146 -18 -315 -22 -261 -6 -336
2 -392 40 -37 24 -79 82 -88 120 l-6 24 163 6 c708 26 1155 240 1316 630 49
118 63 209 72 467 10 285 26 356 118 510 l27 45 3 -400 c2 -315 -1 -420 -12
-495z m684 729 c47 -122 51 -150 60 -404 5 -144 15 -267 24 -306 58 -262 219
-457 485 -589 219 -109 523 -174 879 -187 l163 -6 -6 -26 c-11 -46 -53 -99
-102 -128 l-48 -28 -275 0 c-229 0 -289 4 -360 19 -226 49 -405 143 -568 300
-146 140 -253 325 -310 534 -26 97 -26 99 -29 542 l-4 445 31 -45 c16 -25 44
-79 60 -121z"/>
</g>
</svg>
